<?xml version="1.0" standalone="no"?>
<!DOCTYPE svg PUBLIC "-//W3C//DTD SVG 20010904//EN"
 "http://www.w3.org/TR/2001/REC-SVG-20010904/DTD/svg10.dtd">
<svg version="1.0" xmlns="http://www.w3.org/2000/svg"
 width="1043.000000pt" height="1043.000000pt" viewBox="0 0 1043.000000 1043.000000"
 preserveAspectRatio="xMidYMid meet">
<metadata>
Created by potrace 1.11, written by Peter Selinger 2001-2013
</metadata>
<g transform="translate(0.000000,1043.000000) scale(0.100000,-0.100000)"
fill="#000000" stroke="none">
<path d="M2560 5090 l0 -3850 750 0 750 0 0 898 0 897 311 323 312 323 16 -28
c10 -15 316 -565 681 -1220 l664 -1193 903 0 904 0 -12 23 c-7 12 -469 794
-1027 1737 -558 943 -1017 1721 -1019 1730 -3 12 1120 1254 1919 2123 l90 97
-928 0 -929 0 -940 -1080 -940 -1080 -3 2075 -2 2075 -750 0 -750 0 0 -3850z"/>
</g>
</svg>
