<svg id="Layer_1" data-name="Layer 1" xmlns="http://www.w3.org/2000/svg" viewBox="0 0 792 506.97"><defs><style>.cls-1{fill:#414042;}.cls-2{fill:#e0861a;}.cls-11,.cls-3{fill:#fff;}.cls-3{stroke:#f7941d;}.cls-3,.cls-8{stroke-miterlimit:10;stroke-width:5px;}.cls-4{fill:#e18b33;}.cls-5{fill:#f7941d;}.cls-6{fill:#fbb040;}.cls-7{fill:#231f20;}.cls-13,.cls-8{fill:none;}.cls-8{stroke:#231f20;}.cls-9{fill:#bcbec0;}.cls-10{fill:#e4a03a;}.cls-12{fill:#939598;}</style></defs><title>Fox_khedr</title><rect class="cls-1" x="-0.14" y="-26.17" width="792" height="451.94"/><path class="cls-2" d="M402.54,319.2,272.33,401.72a83.76,83.76,0,0,1-25.18-60V319.2Z"/><polygon class="cls-3" points="261 218.8 238.33 266.45 283.67 266.45 261 218.8"/><path class="cls-4" d="M556.5,403.22v22.55H528.93v-9.55a107.54,107.54,0,0,0-61.11-97h4.65A84,84,0,0,1,556.5,403.22Z"/><path class="cls-5" d="M528.93,416.22v9.55H331.18a83.79,83.79,0,0,1-58.85-24L402.54,319.2h65.28A107.54,107.54,0,0,1,528.93,416.22Z"/><path class="cls-2" d="M281.13,366.27l-6.91,4a30.52,30.52,0,0,1-45.78-26.43v-125Z"/><polygon class="cls-6" points="382.5 307.75 281.13 366.27 228.44 218.8 382.5 307.75"/><polygon class="cls-7" points="382.5 307.75 359.8 294.64 359.8 320.85 382.5 307.75"/><line class="cls-8" x1="334" y1="323.25" x2="319" y2="361.25"/><line class="cls-8" x1="322.5" y1="323" x2="297.5" y2="344.5"/><line class="cls-8" x1="324" y1="314.5" x2="281" y2="315.25"/><path class="cls-8" d="M249.79,284.66c4.83,6.82,21.57,7.88,30,1.89"/><polygon class="cls-9" points="214 150.5 189.96 146.81 173.3 164.52 169.38 140.52 147.39 130.14 169 119 172.07 94.88 189.35 111.99 213.24 107.46 202.31 129.18 214 150.5"/><polygon class="cls-9" points="339 149 328.62 146.72 320.85 153.98 319.81 143.4 310.51 138.26 320.25 134 322.26 123.56 329.32 131.51 339.87 130.2 334.5 139.37 339 149"/><polygon class="cls-9" points="456 144.5 450.73 129.33 435.25 125.06 448.05 115.36 447.32 99.32 460.5 108.5 475.53 102.85 470.88 118.22 480.9 130.77 464.84 131.09 456 144.5"/><polygon class="cls-9" points="607.5 181 603.32 156.03 580.39 145.32 602.84 133.63 605.95 108.5 624 126.25 648.85 121.44 637.56 144.09 649.81 166.24 624.78 162.5 607.5 181"/><polygon class="cls-9" points="509 213.5 498.49 207.95 487.95 213.47 489.98 201.75 481.48 193.44 493.25 191.75 498.53 181.1 503.77 191.77 515.53 193.5 507.01 201.78 509 213.5"/><polygon class="cls-9" points="407.5 218.8 401.89 224.68 403.55 232.64 396.22 229.12 389.17 233.16 390.25 225.1 384.23 219.64 392.23 218.18 395.56 210.76 399.42 217.92 407.5 218.8"/><polygon class="cls-9" points="466 258 458.63 254.97 451.96 259.32 452.57 251.38 446.37 246.38 454.11 244.5 456.95 237.06 461.13 243.84 469.08 244.24 463.93 250.31 466 258"/><path class="cls-10" d="M615.1,222V370.82A54.12,54.12,0,0,1,561,424.94H556.5V412.87a54.13,54.13,0,0,0,45.2-53.38V222.7a53.51,53.51,0,0,1,8.92-.74Z"/><path class="cls-6" d="M601.7,222.7V359.49a54.13,54.13,0,0,1-45.2,53.38V276.08A54.12,54.12,0,0,1,601.7,222.7Z"/><path class="cls-11" d="M608,233.16h0a0,0,0,0,1,0,0v65.72a31.5,31.5,0,0,1-31.5,31.5h0a0,0,0,0,1,0,0V264.66A31.5,31.5,0,0,1,608,233.16Z"/><polygon class="cls-9" points="330.38 371.44 323.35 442.78 337.41 442.78 330.38 371.44"/><polygon class="cls-9" points="305.91 398.07 328.8 436.03 337.88 428.77 305.91 398.07"/><polygon class="cls-9" points="351.96 401.03 322.86 434.47 332.55 440.88 351.96 401.03"/><polygon class="cls-9" points="504.14 387.19 498.66 442.78 509.62 442.78 504.14 387.19"/><polygon class="cls-9" points="485.07 407.94 502.91 437.52 509.99 431.86 485.07 407.94"/><polygon class="cls-9" points="520.96 410.25 498.28 436.3 505.83 441.3 520.96 410.25"/><polygon class="cls-12" points="792 424.94 792 585 612.74 585 319.37 424.94 792 424.94"/><polygon class="cls-9" points="612.74 585 0 585 0 424.94 319.37 424.94 612.74 585"/><line class="cls-13" x1="272.33" y1="401.72" x2="238.33" y2="423.27"/><line class="cls-13" x1="416" y1="310.67" x2="402.54" y2="319.2"/></svg>