<svg id="Layer_1" data-name="Layer 1" xmlns="http://www.w3.org/2000/svg" viewBox="0 0 1742.13 479.63"><defs><style>.cls-1{fill:#fff;}</style></defs><title>khedr-logo-White</title><path class="cls-1" d="M11.16,9.38H123V251.5L225,137.67H354.59l-125,129L370.38,479.14H235.51L152,341.63,123,369.92V479.14H11.16Z" transform="translate(-11.16 -9.38)"/><path class="cls-1" d="M388.05,9.38H499.9v175h1.32c17.1-34.87,63.16-56.58,103.95-56.58,113.82,0,123,82.89,123,132.24V479.14H616.35V314c0-46.71,5.27-94.09-55.92-94.09-42.11,0-60.53,35.53-60.53,73v186.2H388.05Z" transform="translate(-11.16 -9.38)"/><path class="cls-1" d="M862,335.71c2,46.71,29,77.63,76.32,77.63,27,0,53.29-12.5,63.82-37.5h104.61C1086.36,454.79,1013.33,489,937,489c-111.19,0-186.85-67.11-186.85-181.59,0-104.61,83.56-179.61,184.22-179.61,122.37,0,183.56,92.1,178.3,207.9Zm138.82-62.5c-2-38.16-29-69.74-66.45-69.74-39.48,0-65.79,28.29-72.37,69.74Z" transform="translate(-11.16 -9.38)"/><path class="cls-1" d="M1485.17,479.14H1378.58V439.66h-1.31c-21.72,32.24-54.61,49.35-94.09,49.35-107.24,0-152.64-92.11-152.64-188.17,0-88.82,47.38-173,144.09-173,42.11,0,74.35,15.79,97.37,46.71h1.32V9.38h111.85ZM1242.39,304.79c0,46.71,17.11,98.69,68.43,98.69,54.6,0,66.45-52,66.45-95.4,0-49.35-17.77-94.74-66.45-94.74C1259.5,213.34,1242.39,261.36,1242.39,304.79Z" transform="translate(-11.16 -9.38)"/><path class="cls-1" d="M1514.46,137.67H1623v59.88h1.31c16.45-43.43,54.61-66.45,102.64-66.45a118.8,118.8,0,0,1,26.32,2.63v102c-14.48-4-27.64-6.58-42.77-6.58-55.26,0-84.21,38.16-84.21,80.92V479.14H1514.46Z" transform="translate(-11.16 -9.38)"/></svg>